<svg xmlns="http://www.w3.org/2000/svg" viewBox="0 0 207.56 53"><title>Zasób 1</title><g id="Warstwa_2" data-name="Warstwa 2"><g id="Layer_1" data-name="Layer 1"><path d="M0,53V0H1.52V53Z" style="fill:#231f20"/><path d="M38.59,43.7a15.17,15.17,0,0,1-2,3.95,12.93,12.93,0,0,1-2.93,2.93,13.17,13.17,0,0,1-3.58,1.78,12.72,12.72,0,0,1-4,.63,11.46,11.46,0,0,1-5.5-1.18,9.53,9.53,0,0,1-3.52-3.09,12.54,12.54,0,0,1-1.85-4.33,21.78,21.78,0,0,1-.55-4.9V19.39h1.51v20a22,22,0,0,0,.42,4.17,10.88,10.88,0,0,0,1.55,3.95,9.48,9.48,0,0,0,3,3,9,9,0,0,0,4.92,1.21A11.44,11.44,0,0,0,35,47.55a15.21,15.21,0,0,0,2.69-4.85,19.81,19.81,0,0,0,1-6.5V19.39h1.52V44c0,.51,0,8.5,0,9H38.68c0-.46,0-8.71,0-9.3Z" style="fill:#231f20"/><path d="M72.2,43.76a8.49,8.49,0,0,1-3.08,6.68,10.11,10.11,0,0,1-3.26,1.79,12.63,12.63,0,0,1-4,.61,14.89,14.89,0,0,1-6.37-1.33,11.87,11.87,0,0,1-4.71-4L52,46.73a11.46,11.46,0,0,0,9.91,4.81A10.34,10.34,0,0,0,65,51.06a9.18,9.18,0,0,0,2.82-1.44,7.65,7.65,0,0,0,2.07-2.41,6.85,6.85,0,0,0,.78-3.3,6,6,0,0,0-1-3.59,7.55,7.55,0,0,0-2.51-2.19,15.56,15.56,0,0,0-3.34-1.35c-1.21-.34-2.35-.66-3.41-.93s-2.22-.68-3.23-1.06a9.66,9.66,0,0,1-2.65-1.52A6.56,6.56,0,0,1,52.75,31a8.12,8.12,0,0,1-.65-3.44A7.37,7.37,0,0,1,52.92,24a7.5,7.5,0,0,1,2.2-2.51,10.07,10.07,0,0,1,3.14-1.52,12.64,12.64,0,0,1,3.54-.52c4.31,0,7.55,1.55,9.7,4.62l-1.3.76a10.49,10.49,0,0,0-3.58-3.07,10.76,10.76,0,0,0-4.82-1,11.84,11.84,0,0,0-2.75.35,8.23,8.23,0,0,0-2.65,1.13,6.6,6.6,0,0,0-2,2.1,6,6,0,0,0-.79,3.16,7.08,7.08,0,0,0,.66,3.31,5.23,5.23,0,0,0,1.82,2A11.9,11.9,0,0,0,58.91,34c1.1.35,2.32.68,3.65,1s2.44.7,3.61,1.13a13.35,13.35,0,0,1,3.1,1.62,7.25,7.25,0,0,1,2.13,2.41A7.42,7.42,0,0,1,72.2,43.76Z" style="fill:#231f20"/><path d="M131.86,36.12a18.51,18.51,0,0,1-1.21,6.82A15.18,15.18,0,0,1,122,51.75,17.65,17.65,0,0,1,115.27,53a17.41,17.41,0,0,1-6.67-1.24A15.24,15.24,0,0,1,100,42.94a18.72,18.72,0,0,1-1.2-6.82,18.41,18.41,0,0,1,1.2-6.77,15.31,15.31,0,0,1,3.41-5.27,15.92,15.92,0,0,1,5.23-3.44,17.41,17.41,0,0,1,6.67-1.24A17.65,17.65,0,0,1,122,20.64a15.74,15.74,0,0,1,5.26,3.44,15.17,15.17,0,0,1,3.41,5.27A18.21,18.21,0,0,1,131.86,36.12Zm-1.51,0a17.25,17.25,0,0,0-1-6,14.28,14.28,0,0,0-3-4.91,14.1,14.1,0,0,0-4.75-3.31,15.63,15.63,0,0,0-6.3-1.21A15.4,15.4,0,0,0,109,21.92a13.93,13.93,0,0,0-4.71,3.31,14.44,14.44,0,0,0-3,4.91,17.25,17.25,0,0,0-1,6,17.45,17.45,0,0,0,1,6.06,14.48,14.48,0,0,0,3,4.92A14.29,14.29,0,0,0,109,50.44a15.24,15.24,0,0,0,6.26,1.24,15.46,15.46,0,0,0,6.3-1.24,14.14,14.14,0,0,0,7.74-8.26A17.45,17.45,0,0,0,130.35,36.12Z" style="fill:#231f20"/><path d="M145.93,24.78a13.88,13.88,0,0,1,2.95-2.93A12.68,12.68,0,0,1,152.45,20a12.93,12.93,0,0,1,4-.63,11.54,11.54,0,0,1,5.5,1.18,9.48,9.48,0,0,1,3.5,3.09A12.41,12.41,0,0,1,167.32,28a21.69,21.69,0,0,1,.55,4.89V53h-1.51V33A22.11,22.11,0,0,0,166,28.9a11.23,11.23,0,0,0-1.55-4,9.51,9.51,0,0,0-3.06-3,9,9,0,0,0-4.88-1.21,11.63,11.63,0,0,0-4.93,1.07,11.32,11.32,0,0,0-4,3.07,15.34,15.34,0,0,0-2.68,4.84,19.56,19.56,0,0,0-1,6.51V53h-1.5V28.35c0-.51,0-8.33,0-8.79h1.52c0,.46-.05,8.54-.05,9.14h.14A12.62,12.62,0,0,1,145.93,24.78Z" style="fill:#231f20"/><path d="M93,52.78a12.19,12.19,0,0,1-2.13.21q-3.7,0-5.3-2.11A8.43,8.43,0,0,1,84,45.62V13.69H50.64v-1.3h33.3V1.63h1.51V12.39h8.49v1.3H85.45V45.62c0,2.16.54,3.71,1.58,4.65a6.1,6.1,0,0,0,4.2,1.41,9.58,9.58,0,0,0,3.51-.62L95,52.23A10.39,10.39,0,0,1,93,52.78Z" style="fill:#231f20"/><rect x="20.8" y="12.31" width="13.62" height="1.34" style="fill:#231f20"/><path d="M181.6,35.81h26V34.5a17.79,17.79,0,0,0-.89-5.54A14.37,14.37,0,0,0,204,24.1a13.77,13.77,0,0,0-4.6-3.43,14.87,14.87,0,0,0-6.48-1.31,14.6,14.6,0,0,0-5.93,1.21,14,14,0,0,0-4.79,3.4,16.48,16.48,0,0,0-3.21,5.23,18.19,18.19,0,0,0-1.17,6.61,20.43,20.43,0,0,0,1.13,6.88,15.84,15.84,0,0,0,3.24,5.44,14.92,14.92,0,0,0,5,3.54,17,17,0,0,0,13.66-.32,14.67,14.67,0,0,0,2.62-1.7,2.19,2.19,0,0,0,.25-.2c.12-.08.21-.19.31-.27a19.84,19.84,0,0,0,1.45-1.45l.52-.61.31-.37,0,0c.33-.44.67-.85,1-1.32L206,44.55a13.74,13.74,0,0,1-.87,1.24h0a16.4,16.4,0,0,1-1.06,1.26c-.14.15-.28.29-.43.43a14,14,0,0,1-2.08,1.71l-.16.12h0c-.42.28-.84.53-1.29.77a14.27,14.27,0,0,1-6.61,1.48,13.65,13.65,0,0,1-6.33-1.38,13.28,13.28,0,0,1-4.44-3.62,15.07,15.07,0,0,1-2.61-5A19.43,19.43,0,0,1,179.3,36h0v-.18h0l.06-1.92h0a14.83,14.83,0,0,1,.7-3.56,15.19,15.19,0,0,1,2.38-4.53,13.49,13.49,0,0,1,4.15-3.65,12,12,0,0,1,6.13-1.48,14,14,0,0,1,5.37,1,12.11,12.11,0,0,1,4.13,2.83A13.89,13.89,0,0,1,205,28.85a16.94,16.94,0,0,1,1.06,5.65H181.6Z"/></g></g></svg>